<svg xmlns="http://www.w3.org/2000/svg" viewBox="0 0 64 64" width="64" height="64" role="img" aria-label="Rank 77"><defs><linearGradient id="m" x1="0" y1="0" x2="0" y2="1"><stop offset="0" stop-color="#ffd45e"/><stop offset="1" stop-color="#bd7205"/></linearGradient></defs><path d="M32 51 C18 49 12 38 15 26" fill="none" stroke="url(#m)" stroke-width="2.6" stroke-linecap="round"/><path d="M32 51 C46 49 52 38 49 26" fill="none" stroke="url(#m)" stroke-width="2.6" stroke-linecap="round"/><ellipse cx="14.2" cy="40.3" rx="3.4" ry="2.1" fill="url(#m)" transform="rotate(58 14.2 40.3)" opacity=".95"/><ellipse cx="13.7" cy="34.6" rx="3.4" ry="2.1" fill="url(#m)" transform="rotate(36 13.7 34.6)" opacity=".95"/><ellipse cx="15.2" cy="29.0" rx="3.4" ry="2.1" fill="url(#m)" transform="rotate(14 15.2 29.0)" opacity=".95"/><ellipse cx="18.6" cy="24.3" rx="3.4" ry="2.1" fill="url(#m)" transform="rotate(-8 18.6 24.3)" opacity=".95"/><ellipse cx="49.8" cy="40.3" rx="3.4" ry="2.1" fill="url(#m)" transform="rotate(-58 49.8 40.3)" opacity=".95"/><ellipse cx="50.3" cy="34.6" rx="3.4" ry="2.1" fill="url(#m)" transform="rotate(-36 50.3 34.6)" opacity=".95"/><ellipse cx="48.8" cy="29.0" rx="3.4" ry="2.1" fill="url(#m)" transform="rotate(-14 48.8 29.0)" opacity=".95"/><ellipse cx="45.4" cy="24.3" rx="3.4" ry="2.1" fill="url(#m)" transform="rotate(8 45.4 24.3)" opacity=".95"/><rect x="20" y="36" width="24" height="6" rx="2.2" fill="url(#m)"/><rect x="22" y="37.4" width="20" height="1.6" rx="0.8" fill="#fff" opacity=".45"/><path d="M21.0 18.6 L22.4 22.1 L26.1 22.3 L23.3 24.7 L24.2 28.4 L21.0 26.4 L17.8 28.4 L18.7 24.7 L15.9 22.3 L19.6 22.1Z" fill="url(#m)"/><path d="M32.0 18.6 L33.4 22.1 L37.1 22.3 L34.3 24.7 L35.2 28.4 L32.0 26.4 L28.8 28.4 L29.7 24.7 L26.9 22.3 L30.6 22.1Z" fill="url(#m)"/><path d="M43.0 18.6 L44.4 22.1 L48.1 22.3 L45.3 24.7 L46.2 28.4 L43.0 26.4 L39.8 28.4 L40.7 24.7 L37.9 22.3 L41.6 22.1Z" fill="url(#m)"/></svg>